<?xml version="1.0" encoding="utf-8"?>
<!-- Generator: Adobe Illustrator 25.0.1, SVG Export Plug-In . SVG Version: 6.00 Build 0)  -->
<svg version="1.1" id="Layer_1" xmlns="http://www.w3.org/2000/svg" xmlns:xlink="http://www.w3.org/1999/xlink" x="0px" y="0px"
	 viewBox="0 0 260 260" style="enable-background:new 0 0 260 260;" xml:space="preserve">
<style type="text/css">
	.st0{fill:#FFFFFF;}
</style>
<g transform="translate(0.000000,260.000000) scale(0.100000,-0.100000)">
	<path d="M0,1300V0h1300h1300v1300v1300H1300H0V1300z"/>
	<path d="M820,1704v-145l203,137c111,75,206,141,211,145c6,5-85,9-202,9H820V1704z"/>
	<path d="M1653,1838c-13-17-143-238-143-244c0-8,176-4,211,6c76,21,116,101,86,173C1781,1833,1682,1875,1653,1838z"/>
	<path d="M820,910V780h39h40l64,108c35,59,70,117,76,130l12,22H935H820V910z"/>
	<path d="M1466,913l-190-128l222-3c241-3,264,1,298,53c54,83,3,184-101,200C1657,1041,1648,1037,1466,913z"/>
</g>
<polygon class="st0" points="157.79,39.66 157.79,39.81 157.79,59.96 157.79,86.63 110.97,39.81 82.46,39.81 92.54,49.89 
	177.95,135.3 177.95,106.79 177.95,59.96 200.5,59.96 200.5,185.71 74.75,59.96 74.75,59.96 60.5,45.71 60.5,45.71 54.59,39.81 
	54.59,39.81 54.44,39.66 54.3,39.81 40.34,39.81 40.34,39.81 40.34,59.96 40.34,199.97 40.34,220.12 40.34,220.12 103.38,220.12 
	103.38,220.12 103.38,199.97 103.38,173.47 150.03,220.12 178.54,220.12 103.38,144.96 103.38,144.96 83.22,124.8 83.22,153.31 
	83.22,199.97 60.5,199.97 60.5,74.22 186.25,199.97 186.25,199.97 187.18,200.9 200.5,214.22 200.5,214.22 206.41,220.12 
	206.41,220.12 206.41,220.12 206.41,220.12 220.66,220.12 220.66,220.12 220.66,199.97 220.66,59.96 220.66,58.3 220.66,39.66 "/>
</svg>
